<mxfile host="Electron" modified="2024-01-21T13:44:46.305Z" agent="Mozilla/5.0 (Windows NT 10.0; Win64; x64) AppleWebKit/537.36 (KHTML, like Gecko) draw.io/21.8.2 Chrome/114.0.5735.289 Electron/25.8.1 Safari/537.36" etag="x9qk8kvyS4mM26GYE7_W" version="21.8.2" type="device">
  <diagram name="Page-1" id="rVXka8db7KZHsTNRGDj0">
    <mxGraphModel dx="2500" dy="1242" grid="1" gridSize="10" guides="1" tooltips="1" connect="1" arrows="1" fold="1" page="0" pageScale="1" pageWidth="850" pageHeight="1100" math="0" shadow="0">
      <root>
        <mxCell id="0" />
        <mxCell id="1" parent="0" />
        <mxCell id="WulkwlyHYuM5ElqRk_FG-24" style="edgeStyle=orthogonalEdgeStyle;rounded=0;orthogonalLoop=1;jettySize=auto;html=1;exitX=1;exitY=0.5;exitDx=0;exitDy=0;entryX=0;entryY=0.5;entryDx=0;entryDy=0;" edge="1" parent="1" source="WulkwlyHYuM5ElqRk_FG-22" target="WulkwlyHYuM5ElqRk_FG-23">
          <mxGeometry relative="1" as="geometry" />
        </mxCell>
        <mxCell id="WulkwlyHYuM5ElqRk_FG-22" value="Input" style="triangle;whiteSpace=wrap;html=1;align=left;fillColor=#0050ef;fontColor=#ffffff;strokeColor=#001DBC;" vertex="1" parent="1">
          <mxGeometry x="-120" y="360" width="60" height="80" as="geometry" />
        </mxCell>
        <mxCell id="WulkwlyHYuM5ElqRk_FG-28" style="edgeStyle=orthogonalEdgeStyle;rounded=0;orthogonalLoop=1;jettySize=auto;html=1;exitX=1;exitY=0.5;exitDx=0;exitDy=0;" edge="1" parent="1" source="WulkwlyHYuM5ElqRk_FG-23" target="WulkwlyHYuM5ElqRk_FG-26">
          <mxGeometry relative="1" as="geometry" />
        </mxCell>
        <mxCell id="WulkwlyHYuM5ElqRk_FG-23" value="Function" style="rounded=0;whiteSpace=wrap;html=1;fillColor=#f0a30a;fontColor=#000000;strokeColor=#BD7000;" vertex="1" parent="1">
          <mxGeometry y="370" width="120" height="60" as="geometry" />
        </mxCell>
        <mxCell id="WulkwlyHYuM5ElqRk_FG-27" style="edgeStyle=orthogonalEdgeStyle;rounded=0;orthogonalLoop=1;jettySize=auto;html=1;exitX=0.5;exitY=1;exitDx=0;exitDy=0;dashed=1;dashPattern=1 2;endArrow=classicThin;endFill=1;" edge="1" parent="1" source="WulkwlyHYuM5ElqRk_FG-25" target="WulkwlyHYuM5ElqRk_FG-26">
          <mxGeometry relative="1" as="geometry" />
        </mxCell>
        <mxCell id="WulkwlyHYuM5ElqRk_FG-25" value="Function Constructor" style="rounded=0;whiteSpace=wrap;html=1;fillColor=#e51400;fontColor=#ffffff;strokeColor=#B20000;" vertex="1" parent="1">
          <mxGeometry x="180" y="280" width="120" height="60" as="geometry" />
        </mxCell>
        <mxCell id="WulkwlyHYuM5ElqRk_FG-35" style="edgeStyle=orthogonalEdgeStyle;rounded=0;orthogonalLoop=1;jettySize=auto;html=1;exitX=1;exitY=0.5;exitDx=0;exitDy=0;" edge="1" parent="1" source="WulkwlyHYuM5ElqRk_FG-26" target="WulkwlyHYuM5ElqRk_FG-34">
          <mxGeometry relative="1" as="geometry" />
        </mxCell>
        <mxCell id="WulkwlyHYuM5ElqRk_FG-26" value="Function" style="rounded=0;whiteSpace=wrap;html=1;fillColor=#f0a30a;fontColor=#000000;strokeColor=#BD7000;" vertex="1" parent="1">
          <mxGeometry x="180" y="370" width="120" height="60" as="geometry" />
        </mxCell>
        <mxCell id="WulkwlyHYuM5ElqRk_FG-38" style="edgeStyle=orthogonalEdgeStyle;rounded=0;orthogonalLoop=1;jettySize=auto;html=1;exitX=1;exitY=0;exitDx=0;exitDy=0;entryX=0;entryY=0.5;entryDx=0;entryDy=0;" edge="1" parent="1" source="WulkwlyHYuM5ElqRk_FG-34" target="WulkwlyHYuM5ElqRk_FG-36">
          <mxGeometry relative="1" as="geometry" />
        </mxCell>
        <mxCell id="WulkwlyHYuM5ElqRk_FG-40" value="True" style="edgeLabel;html=1;align=center;verticalAlign=middle;resizable=0;points=[];" vertex="1" connectable="0" parent="WulkwlyHYuM5ElqRk_FG-38">
          <mxGeometry x="-0.0969" y="-2" relative="1" as="geometry">
            <mxPoint as="offset" />
          </mxGeometry>
        </mxCell>
        <mxCell id="WulkwlyHYuM5ElqRk_FG-39" style="edgeStyle=orthogonalEdgeStyle;rounded=0;orthogonalLoop=1;jettySize=auto;html=1;exitX=1;exitY=1;exitDx=0;exitDy=0;entryX=0;entryY=0.5;entryDx=0;entryDy=0;" edge="1" parent="1" source="WulkwlyHYuM5ElqRk_FG-34" target="WulkwlyHYuM5ElqRk_FG-37">
          <mxGeometry relative="1" as="geometry" />
        </mxCell>
        <mxCell id="WulkwlyHYuM5ElqRk_FG-41" value="False" style="edgeLabel;html=1;align=center;verticalAlign=middle;resizable=0;points=[];" vertex="1" connectable="0" parent="WulkwlyHYuM5ElqRk_FG-39">
          <mxGeometry x="-0.0886" relative="1" as="geometry">
            <mxPoint as="offset" />
          </mxGeometry>
        </mxCell>
        <mxCell id="WulkwlyHYuM5ElqRk_FG-34" value="If/Else" style="rhombus;whiteSpace=wrap;html=1;fillColor=#60a917;strokeColor=#2D7600;fontColor=#ffffff;" vertex="1" parent="1">
          <mxGeometry x="360" y="360" width="80" height="80" as="geometry" />
        </mxCell>
        <mxCell id="WulkwlyHYuM5ElqRk_FG-45" style="edgeStyle=orthogonalEdgeStyle;rounded=0;orthogonalLoop=1;jettySize=auto;html=1;exitX=1;exitY=0.5;exitDx=0;exitDy=0;entryX=0;entryY=0.5;entryDx=0;entryDy=0;" edge="1" parent="1" source="WulkwlyHYuM5ElqRk_FG-36" target="WulkwlyHYuM5ElqRk_FG-44">
          <mxGeometry relative="1" as="geometry" />
        </mxCell>
        <mxCell id="WulkwlyHYuM5ElqRk_FG-36" value="Function" style="rounded=0;whiteSpace=wrap;html=1;fillColor=#f0a30a;fontColor=#000000;strokeColor=#BD7000;" vertex="1" parent="1">
          <mxGeometry x="520" y="280" width="120" height="60" as="geometry" />
        </mxCell>
        <mxCell id="WulkwlyHYuM5ElqRk_FG-58" style="edgeStyle=orthogonalEdgeStyle;rounded=0;orthogonalLoop=1;jettySize=auto;html=1;exitX=1;exitY=0.5;exitDx=0;exitDy=0;entryX=0;entryY=1;entryDx=0;entryDy=0;" edge="1" parent="1" source="WulkwlyHYuM5ElqRk_FG-37" target="WulkwlyHYuM5ElqRk_FG-56">
          <mxGeometry relative="1" as="geometry" />
        </mxCell>
        <mxCell id="WulkwlyHYuM5ElqRk_FG-37" value="Function" style="rounded=0;whiteSpace=wrap;html=1;fillColor=#f0a30a;fontColor=#000000;strokeColor=#BD7000;" vertex="1" parent="1">
          <mxGeometry x="520" y="460" width="120" height="60" as="geometry" />
        </mxCell>
        <mxCell id="WulkwlyHYuM5ElqRk_FG-43" style="edgeStyle=orthogonalEdgeStyle;rounded=0;orthogonalLoop=1;jettySize=auto;html=1;exitX=0.5;exitY=1;exitDx=0;exitDy=0;" edge="1" parent="1" source="WulkwlyHYuM5ElqRk_FG-42" target="WulkwlyHYuM5ElqRk_FG-34">
          <mxGeometry relative="1" as="geometry" />
        </mxCell>
        <mxCell id="WulkwlyHYuM5ElqRk_FG-42" value="Boolean Constructor" style="shape=hexagon;perimeter=hexagonPerimeter2;whiteSpace=wrap;html=1;fixedSize=1;fillColor=#a0522d;fontColor=#ffffff;strokeColor=#6D1F00;" vertex="1" parent="1">
          <mxGeometry x="340" y="110" width="120" height="80" as="geometry" />
        </mxCell>
        <mxCell id="WulkwlyHYuM5ElqRk_FG-47" style="edgeStyle=orthogonalEdgeStyle;rounded=0;orthogonalLoop=1;jettySize=auto;html=1;exitX=1;exitY=0;exitDx=0;exitDy=0;entryX=0;entryY=0.5;entryDx=0;entryDy=0;" edge="1" parent="1" source="WulkwlyHYuM5ElqRk_FG-44" target="WulkwlyHYuM5ElqRk_FG-46">
          <mxGeometry relative="1" as="geometry" />
        </mxCell>
        <mxCell id="WulkwlyHYuM5ElqRk_FG-48" value="True" style="edgeLabel;html=1;align=center;verticalAlign=middle;resizable=0;points=[];" vertex="1" connectable="0" parent="WulkwlyHYuM5ElqRk_FG-47">
          <mxGeometry x="-0.2299" y="1" relative="1" as="geometry">
            <mxPoint y="1" as="offset" />
          </mxGeometry>
        </mxCell>
        <mxCell id="WulkwlyHYuM5ElqRk_FG-52" style="edgeStyle=orthogonalEdgeStyle;rounded=0;orthogonalLoop=1;jettySize=auto;html=1;exitX=1;exitY=1;exitDx=0;exitDy=0;entryX=0;entryY=1;entryDx=0;entryDy=0;" edge="1" parent="1" source="WulkwlyHYuM5ElqRk_FG-44" target="WulkwlyHYuM5ElqRk_FG-50">
          <mxGeometry relative="1" as="geometry" />
        </mxCell>
        <mxCell id="WulkwlyHYuM5ElqRk_FG-53" style="edgeStyle=orthogonalEdgeStyle;rounded=0;orthogonalLoop=1;jettySize=auto;html=1;exitX=0;exitY=0;exitDx=0;exitDy=0;entryX=1;entryY=0.5;entryDx=0;entryDy=0;dashed=1;endArrow=classicThin;endFill=1;" edge="1" parent="1" source="WulkwlyHYuM5ElqRk_FG-44" target="WulkwlyHYuM5ElqRk_FG-49">
          <mxGeometry relative="1" as="geometry" />
        </mxCell>
        <mxCell id="WulkwlyHYuM5ElqRk_FG-44" value="If/Else" style="rhombus;whiteSpace=wrap;html=1;fillColor=#60a917;strokeColor=#2D7600;fontColor=#ffffff;" vertex="1" parent="1">
          <mxGeometry x="720" y="270" width="80" height="80" as="geometry" />
        </mxCell>
        <mxCell id="WulkwlyHYuM5ElqRk_FG-51" style="edgeStyle=orthogonalEdgeStyle;rounded=0;orthogonalLoop=1;jettySize=auto;html=1;exitX=1;exitY=0.5;exitDx=0;exitDy=0;entryX=0;entryY=0;entryDx=0;entryDy=0;" edge="1" parent="1" source="WulkwlyHYuM5ElqRk_FG-46" target="WulkwlyHYuM5ElqRk_FG-50">
          <mxGeometry relative="1" as="geometry" />
        </mxCell>
        <mxCell id="WulkwlyHYuM5ElqRk_FG-46" value="Function" style="rounded=0;whiteSpace=wrap;html=1;fillColor=#f0a30a;fontColor=#000000;strokeColor=#BD7000;" vertex="1" parent="1">
          <mxGeometry x="840" y="190" width="120" height="60" as="geometry" />
        </mxCell>
        <mxCell id="WulkwlyHYuM5ElqRk_FG-49" value="This If/Else is just an If Block." style="text;html=1;strokeColor=default;fillColor=none;align=left;verticalAlign=top;whiteSpace=wrap;rounded=0;" vertex="1" parent="1">
          <mxGeometry x="600" y="170" width="80" height="60" as="geometry" />
        </mxCell>
        <mxCell id="WulkwlyHYuM5ElqRk_FG-57" style="edgeStyle=orthogonalEdgeStyle;rounded=0;orthogonalLoop=1;jettySize=auto;html=1;exitX=1;exitY=0.5;exitDx=0;exitDy=0;entryX=0;entryY=0;entryDx=0;entryDy=0;" edge="1" parent="1" source="WulkwlyHYuM5ElqRk_FG-50" target="WulkwlyHYuM5ElqRk_FG-56">
          <mxGeometry relative="1" as="geometry" />
        </mxCell>
        <mxCell id="WulkwlyHYuM5ElqRk_FG-50" value="End If" style="rhombus;whiteSpace=wrap;html=1;fillColor=#a20025;fontColor=#ffffff;strokeColor=#6F0000;" vertex="1" parent="1">
          <mxGeometry x="1010" y="270" width="80" height="80" as="geometry" />
        </mxCell>
        <mxCell id="WulkwlyHYuM5ElqRk_FG-55" style="edgeStyle=orthogonalEdgeStyle;rounded=0;orthogonalLoop=1;jettySize=auto;html=1;exitX=1;exitY=0.5;exitDx=0;exitDy=0;entryX=0.5;entryY=0;entryDx=0;entryDy=0;" edge="1" parent="1" source="WulkwlyHYuM5ElqRk_FG-54" target="WulkwlyHYuM5ElqRk_FG-44">
          <mxGeometry relative="1" as="geometry" />
        </mxCell>
        <mxCell id="WulkwlyHYuM5ElqRk_FG-54" value="Input" style="triangle;whiteSpace=wrap;html=1;align=left;fillColor=#0050ef;fontColor=#ffffff;strokeColor=#001DBC;" vertex="1" parent="1">
          <mxGeometry x="660" y="60" width="60" height="80" as="geometry" />
        </mxCell>
        <mxCell id="WulkwlyHYuM5ElqRk_FG-60" style="edgeStyle=orthogonalEdgeStyle;rounded=0;orthogonalLoop=1;jettySize=auto;html=1;exitX=1;exitY=0.5;exitDx=0;exitDy=0;" edge="1" parent="1" source="WulkwlyHYuM5ElqRk_FG-56" target="WulkwlyHYuM5ElqRk_FG-59">
          <mxGeometry relative="1" as="geometry" />
        </mxCell>
        <mxCell id="WulkwlyHYuM5ElqRk_FG-56" value="End If" style="rhombus;whiteSpace=wrap;html=1;fillColor=#a20025;fontColor=#ffffff;strokeColor=#6F0000;" vertex="1" parent="1">
          <mxGeometry x="1160" y="370" width="80" height="80" as="geometry" />
        </mxCell>
        <mxCell id="WulkwlyHYuM5ElqRk_FG-62" style="edgeStyle=orthogonalEdgeStyle;rounded=0;orthogonalLoop=1;jettySize=auto;html=1;exitX=1;exitY=0.5;exitDx=0;exitDy=0;entryX=1;entryY=0.5;entryDx=0;entryDy=0;" edge="1" parent="1" source="WulkwlyHYuM5ElqRk_FG-59" target="WulkwlyHYuM5ElqRk_FG-61">
          <mxGeometry relative="1" as="geometry" />
        </mxCell>
        <mxCell id="WulkwlyHYuM5ElqRk_FG-59" value="Function" style="rounded=0;whiteSpace=wrap;html=1;fillColor=#f0a30a;fontColor=#000000;strokeColor=#BD7000;" vertex="1" parent="1">
          <mxGeometry x="1350" y="380" width="120" height="60" as="geometry" />
        </mxCell>
        <mxCell id="WulkwlyHYuM5ElqRk_FG-61" value="Output" style="triangle;whiteSpace=wrap;html=1;direction=west;align=right;fillColor=#0050ef;fontColor=#ffffff;strokeColor=#001DBC;" vertex="1" parent="1">
          <mxGeometry x="1540" y="370" width="60" height="80" as="geometry" />
        </mxCell>
      </root>
    </mxGraphModel>
  </diagram>
</mxfile>
